<svg width="27" height="27" viewBox="0 0 27 27" fill="none" xmlns="http://www.w3.org/2000/svg">
<path d="M20.3489 11.703C19.9699 12.0843 19.6797 12.5445 19.4989 13.0507C19.3181 13.557 19.2512 14.0969 19.3029 14.632L19.2849 14.614C19.3381 15.2439 19.2531 15.8777 19.036 16.4714C18.8189 17.065 18.4749 17.6041 18.028 18.0511C17.581 18.498 17.0419 18.8421 16.4482 19.0591C15.8546 19.2762 15.2207 19.3612 14.5909 19.308L14.6089 19.326C13.8555 19.2559 13.0988 19.4198 12.4419 19.7955C11.7851 20.1712 11.2601 20.7403 10.9386 21.4253C10.6171 22.1103 10.5146 22.8777 10.6452 23.6231C10.7759 24.3684 11.1332 25.0553 11.6685 25.5901C12.2038 26.1249 12.891 26.4816 13.6364 26.6115C14.3819 26.7415 15.1492 26.6383 15.8339 26.3162C16.5186 25.994 17.0872 25.4686 17.4623 24.8114C17.8374 24.1542 18.0007 23.3974 17.9299 22.644L17.9489 22.662C17.8957 22.0322 17.9806 21.3983 18.1977 20.8046C18.4148 20.211 18.7589 19.6719 19.2058 19.2249C19.6528 18.778 20.1919 18.4339 20.7855 18.2169C21.3792 17.9998 22.013 17.9148 22.6429 17.968L22.6239 17.95C23.2393 18.0053 23.8588 17.9044 24.4249 17.6566C24.9909 17.4088 25.4853 17.0221 25.8621 16.5324C26.2389 16.0427 26.4861 15.4657 26.5805 14.8551C26.675 14.2444 26.6138 13.6198 26.4026 13.039C26.1914 12.4583 25.837 11.9403 25.3723 11.533C24.9076 11.1257 24.3476 10.8423 23.7442 10.7091C23.1408 10.5759 22.5135 10.5971 21.9205 10.7708C21.3275 10.9446 20.788 11.2652 20.3519 11.703H20.3489Z" fill="white"/>
<path d="M12.9718 16.968L12.9528 16.95C13.4881 17.0039 14.0287 16.9382 14.5356 16.7576C15.0424 16.577 15.5028 16.2861 15.8834 15.9058C16.2639 15.5255 16.5553 15.0653 16.7362 14.5586C16.9172 14.0519 16.9833 13.5114 16.9298 12.976L16.9488 12.994C16.8956 12.3641 16.9806 11.7303 17.1976 11.1366C17.4147 10.543 17.7588 10.0039 18.2057 9.55693C18.6527 9.11003 19.1918 8.76593 19.7854 8.54893C20.3791 8.33179 21.0129 8.24686 21.6428 8.30003L21.6238 8.28203C22.3773 8.35283 23.1342 8.18939 23.7914 7.81413C24.4487 7.43887 24.9741 6.87 25.2961 6.18513C25.6181 5.50027 25.721 4.73274 25.5908 3.98723C25.4606 3.24172 25.1036 2.55454 24.5684 2.0194C24.0333 1.48427 23.3461 1.12723 22.6006 0.997007C21.8551 0.866777 21.0876 0.969687 20.4027 1.29171C19.7178 1.61372 19.149 2.13917 18.7737 2.79638C18.3984 3.45358 18.235 4.21055 18.3058 4.96403L18.2878 4.94503C18.3411 5.57492 18.2563 6.20886 18.0393 6.80258C17.8223 7.3963 17.4782 7.93549 17.0313 8.38253C16.5843 8.82943 16.0451 9.17353 15.4514 9.39053C14.8576 9.60753 14.2237 9.69233 13.5938 9.63903L13.6118 9.65803C13.0765 9.60413 12.5358 9.66983 12.029 9.85043C11.5222 10.0309 11.0618 10.3219 10.6812 10.7022C10.3006 11.0825 10.0093 11.5427 9.82834 12.0494C9.64744 12.5561 9.58134 13.0966 9.63484 13.632L9.61684 13.614C9.66984 14.2438 9.58474 14.8776 9.36764 15.4712C9.15044 16.0647 8.80644 16.6038 8.35954 17.0507C7.9126 17.4976 7.37356 17.8416 6.78 18.0588C6.18644 18.2759 5.55265 18.361 4.92284 18.308L4.94084 18.326C4.18736 18.2552 3.43039 18.4186 2.77318 18.7939C2.11598 19.1692 1.59053 19.738 1.26852 20.4229C0.946502 21.1078 0.843582 21.8753 0.973812 22.6208C1.10404 23.3663 1.46108 24.0535 1.99621 24.5886C2.53135 25.1238 3.21853 25.4808 3.96404 25.611C4.70955 25.7412 5.47708 25.6383 6.16195 25.3163C6.84681 24.9943 7.41568 24.4689 7.79094 23.8117C8.16624 23.1544 8.32964 22.3975 8.25884 21.644L8.27784 21.662C8.22464 21.0321 8.30964 20.3983 8.52674 19.8046C8.74374 19.211 9.08784 18.6719 9.53474 18.2249C9.98174 17.778 10.5208 17.4339 11.1144 17.2169C11.7081 16.9998 12.3419 16.9148 12.9718 16.968Z" fill="white"/>
<path d="M6.2699 14.961C6.64892 14.5798 6.9391 14.1196 7.11974 13.6133C7.30038 13.107 7.36702 12.567 7.3149 12.032L7.33389 12.05C7.28069 11.42 7.36565 10.7859 7.58286 10.1921C7.80007 9.59827 8.1443 9.05907 8.5915 8.61207C9.0387 8.16509 9.578 7.8211 10.1719 7.60415C10.7658 7.38719 11.3999 7.30249 12.0299 7.35597L12.0109 7.33797C12.7641 7.40854 13.5208 7.24505 14.1777 6.86981C14.8346 6.49458 15.3597 5.92585 15.6816 5.2412C16.0034 4.55654 16.1062 3.78929 15.976 3.04406C15.8458 2.29883 15.4888 1.61191 14.9539 1.07697C14.419 0.54203 13.732 0.18511 12.9868 0.0548905C12.2416 -0.0753395 11.4743 0.0274805 10.7897 0.3493C10.105 0.67112 9.5363 1.19629 9.1611 1.85319C8.7858 2.51009 8.6223 3.26675 8.6929 4.01997L8.6749 4.00197C8.7281 4.63182 8.6431 5.26569 8.426 5.85933C8.2089 6.45297 7.86492 6.99208 7.41796 7.43904C6.97101 7.886 6.43189 8.23003 5.83825 8.44707C5.24461 8.66417 4.61075 8.74917 3.9809 8.69597L3.9989 8.71397C3.38347 8.65877 2.76406 8.75987 2.19808 9.00777C1.6321 9.25567 1.13785 9.64247 0.761139 10.1323C0.384429 10.622 0.137449 11.199 0.0430689 11.8096C-0.0513011 12.4203 0.0099889 13.0449 0.221259 13.6255C0.432529 14.2062 0.786959 14.7241 1.25169 15.1313C1.71642 15.5386 2.27642 15.8219 2.8798 15.9551C3.48317 16.0882 4.1104 16.0669 4.70337 15.8932C5.29633 15.7194 5.83583 15.3988 6.27189 14.961H6.2699Z" fill="white"/>
</svg>
